# xmcd CD database file
#
# Track frame offsets:
#	150
#	27888
#	65477
#	84397
#	100657
#	125813
#	159283
#
# Disc length: 2299 seconds
#
# Revision: 0
# Processed by: cddbd v1.5.2PL0 Copyright (c) Steve Scherf et al.
# Submitted via: Feurio! 1.68 - http://www.feurio.com
#
DISCID=4f08f907
DTITLE=Fleetwood Mac - The Warehouse   New Orleans, LA   01-31-70   Disc 1
DYEAR=1900
DGENRE=
TTITLE0=Sandy Mary
TTITLE1=I've Got A Mind To Give Up Living > All Over Again
TTITLE2=Only You
TTITLE3=World In Harmony
TTITLE4=Stranger Blues
TTITLE5=I Can't Hold Out
TTITLE6=Oh Well
EXTD=
EXTT0=
EXTT1=
EXTT2=
EXTT3=
EXTT4=
EXTT5=
EXTT6=
PLAYORDER=
